<?xml version="1.0" encoding="UTF-8" standalone="no"?>
<svg width="400px" height="400px" viewBox="0 0 400 400" version="1.1" xmlns="http://www.w3.org/2000/svg" xmlns:xlink="http://www.w3.org/1999/xlink">
    <!-- Generator: Sketch 3.8.3 (29802) - http://www.bohemiancoding.com/sketch -->
    <title>line_scape</title>
    <desc>Created with Sketch.</desc>
    <defs></defs>
    <g stroke="none" stroke-width="1" fill="none" fill-rule="evenodd">
        <g stroke="#979797" stroke-width="2">
            <rect x="20" y="20" width="360" height="360" rx="40"></rect>
            <rect x="40" y="40" width="320" height="320" rx="20"></rect>
            <rect stroke-linejoin="round" x="60" y="220" width="280" height="120"></rect>
            <path d="M60,240 L130,240" stroke-linecap="round"></path>
            <path d="M60,200 L90,200" stroke-linecap="round"></path>
            <path d="M60,180 L110,180" stroke-linecap="round"></path>
            <path d="M60,160 L140,160" stroke-linecap="round"></path>
            <path d="M310,200 L340,200" stroke-linecap="round"></path>
            <path d="M290,180 L340,180" stroke-linecap="round"></path>
            <path d="M260,160 L340,160" stroke-linecap="round"></path>
            <path d="M150,240 L250,240" stroke-linecap="round"></path>
            <path d="M90,260 L190,260" stroke-linecap="round"></path>
            <path d="M60,260 L70,260" stroke-linecap="round"></path>
            <path d="M60,300 L70,300" stroke-linecap="round"></path>
            <path d="M330,260 L340,260" stroke-linecap="round"></path>
            <path d="M330,300 L340,300" stroke-linecap="round"></path>
            <path d="M210,260 L310,260" stroke-linecap="round"></path>
            <path d="M90,300 L190,300" stroke-linecap="round"></path>
            <path d="M210,300 L310,300" stroke-linecap="round"></path>
            <path d="M270,240 L340,240" stroke-linecap="round"></path>
            <path d="M60,280 L130,280" stroke-linecap="round"></path>
            <path d="M150,280 L250,280" stroke-linecap="round"></path>
            <path d="M270,280 L340,280" stroke-linecap="round"></path>
            <path d="M60,320 L130,320" stroke-linecap="round"></path>
            <path d="M150,320 L250,320" stroke-linecap="round"></path>
            <path d="M270,320 L340,320" stroke-linecap="round"></path>
            <circle cx="200" cy="140" r="50"></circle>
            <circle cx="200" cy="140" r="30"></circle>
            <circle cx="200" cy="140" r="10"></circle>
            <polygon stroke-linejoin="round" points="140 220 200 160 260 220"></polygon>
            <polygon stroke-linejoin="round" points="100 220 140 180 180 220"></polygon>
            <polygon stroke-linejoin="round" points="220 220 260 180 300 220"></polygon>
            <path d="M250,140 L340,140" stroke-linecap="round"></path>
            <path d="M60,140 L150,140" stroke-linecap="round"></path>
            <path d="M200,60 L200,90" stroke-linecap="round"></path>
            <path d="M60,60 L60,120" stroke-linecap="round"></path>
            <path d="M80,60 L80,140" stroke-linecap="round"></path>
            <path d="M100,60 L100,120" stroke-linecap="round"></path>
            <path d="M120,60 L120,140" stroke-linecap="round"></path>
            <path d="M140,60 L140,120" stroke-linecap="round"></path>
            <path d="M160,60 L160,110" stroke-linecap="round"></path>
            <path d="M240,60 L240,110" stroke-linecap="round"></path>
            <path d="M220,60 L220,94" stroke-linecap="round"></path>
            <path d="M180,60 L180,94" stroke-linecap="round"></path>
            <path d="M260,60 L260,120" stroke-linecap="round"></path>
            <path d="M280,60 L280,140" stroke-linecap="round"></path>
            <path d="M300,60 L300,120" stroke-linecap="round"></path>
            <path d="M320,60 L320,140" stroke-linecap="round"></path>
            <path d="M340,60 L340,120" stroke-linecap="round"></path>
            <path d="M236,60 L280,104" stroke-linecap="round" transform="translate(258.000000, 82.000000) scale(1, -1) translate(-258.000000, -82.000000) "></path>
            <path d="M145,170 L159.508618,184.508618" stroke-linecap="round" transform="translate(152.500000, 177.500000) scale(1, -1) translate(-152.500000, -177.500000) "></path>
            <path d="M120,60 L164.503624,104.503624" stroke-linecap="round"></path>
            <path d="M240.491113,170.491113 L254.560663,184.560663" stroke-linecap="round"></path>
        </g>
    </g>
</svg>